<svg width="38" height="38" viewBox="0 0 38 38" fill="none" xmlns="http://www.w3.org/2000/svg">
<rect width="38" height="38" rx="19" fill="#FF4343"/>
<g clip-path="url(#clip0_115_555)">
<path d="M19 8.87646C13.4179 8.87646 8.87657 13.4178 8.87657 18.9999C8.87657 24.582 13.4179 29.1233 19 29.1233C24.5821 29.1233 29.1234 24.582 29.1234 18.9999C29.1234 13.4178 24.5821 8.87646 19 8.87646ZM25.6933 13.5449C26.8976 15.0163 27.6269 16.8904 27.646 18.9314C27.3609 18.8711 24.5021 18.2912 21.6249 18.6531C21.3901 18.0799 21.1685 17.5757 20.8649 16.9544C24.062 15.649 25.511 13.7915 25.6933 13.5449ZM24.732 12.545C24.5765 12.7665 23.2749 14.516 20.2001 15.6685C18.7832 13.0652 17.2127 10.9265 16.9737 10.6065C19.7158 9.94547 22.6055 10.6583 24.732 12.545ZM15.3238 11.1877C15.5518 11.5004 17.0969 13.6417 18.5297 16.1886C14.4849 17.2627 10.9224 17.2472 10.5357 17.2421C11.0964 14.5589 12.9046 12.3288 15.3238 11.1877ZM10.353 19.0131C10.353 18.9247 10.3548 18.8367 10.3575 18.7489C10.7358 18.7566 14.9261 18.8106 19.2443 17.5183C19.4918 18.0027 19.7283 18.4945 19.9453 18.9857C16.8185 19.8664 13.9776 22.3953 12.576 24.7947C11.1949 23.2617 10.353 21.234 10.353 19.0131ZM13.6924 25.8347C14.5957 23.9883 17.047 21.6048 20.5331 20.4156C21.7471 23.5703 22.2491 26.2142 22.3777 26.9728C19.5973 28.1572 16.254 27.8322 13.6924 25.8347ZM23.8314 26.1812C23.7428 25.6552 23.2825 23.1239 22.1515 20.016C24.8612 19.5822 27.2418 20.2923 27.5377 20.3856C27.1522 22.7916 25.7712 24.8695 23.8314 26.1812Z" fill="#F6F9FC"/>
</g>
<defs>
<clipPath id="clip0_115_555">
<rect width="20.9" height="20.9" fill="white" transform="translate(8.55 8.5498)"/>
</clipPath>
</defs>
</svg>
