<svg width="149" height="34" viewBox="0 0 149 34" fill="none" xmlns="http://www.w3.org/2000/svg">
<path d="M9.22753 28.3595C5.183 28.3595 2.3668 27.0713 0.359514 25.1838L3.08583 21.1692C4.52389 22.6073 6.74089 23.8057 9.49717 23.8057C11.2348 23.8057 12.3134 23.2065 12.3134 22.2178C12.3134 19.5814 1.01862 21.7684 1.01862 14.0688C1.01862 10.7134 3.83482 7.71741 8.9579 7.71741C12.1636 7.71741 14.9498 8.67611 17.0769 10.5036L14.2607 14.3684C12.583 12.9603 10.396 12.2713 8.41862 12.2713C6.92065 12.2713 6.26154 12.7806 6.26154 13.6494C6.26154 16.1061 17.5563 14.2486 17.5563 21.6785C17.5563 25.6931 14.5903 28.3595 9.22753 28.3595ZM34.2271 28H29.6133V26.2623C28.7146 27.281 27.0668 28.3595 24.6101 28.3595C21.3445 28.3595 19.8465 26.4721 19.8465 23.8356V13.5296H24.4603V21.9182C24.4603 23.6858 25.3591 24.285 26.8571 24.285C28.1753 24.285 29.0741 23.566 29.6133 22.8769V13.5296H34.2271V28ZM46.4745 28.3595C44.8567 28.3595 43.3886 27.7304 42.1903 26.2923V33.5126H37.5765V13.5296H42.1903V15.2073C43.3287 13.8291 44.8267 13.17 46.4745 13.17C50.0996 13.17 52.8259 15.8664 52.8259 20.7498C52.8259 25.6632 50.0996 28.3595 46.4745 28.3595ZM44.9465 24.285C46.7441 24.285 48.1222 22.9368 48.1222 20.7498C48.1222 18.5927 46.7441 17.2445 44.9465 17.2445C43.9579 17.2445 42.7595 17.7838 42.1903 18.5628V22.9668C42.7595 23.7158 43.9579 24.285 44.9465 24.285ZM62.1693 28.3595C57.7053 28.3595 54.2899 25.4534 54.2899 20.7498C54.2899 16.5555 57.4357 13.17 61.9596 13.17C66.2438 13.17 69.3596 16.3158 69.3596 21.2291V22.2777H59.0535C59.383 23.566 60.5814 24.6445 62.6786 24.6445C63.6972 24.6445 65.3749 24.1951 66.2138 23.4162L68.2211 26.4421C66.783 27.7304 64.3863 28.3595 62.1693 28.3595ZM64.9555 19.132C64.8357 18.1134 64.0867 16.885 61.9596 16.885C59.9523 16.885 59.1733 18.0834 58.9936 19.132H64.9555ZM76.2458 28H71.632V13.5296H76.2458V15.2972C77.2045 14.1287 79.062 13.1401 80.7697 13.1401V17.5741C80.5001 17.4842 80.1106 17.4542 79.6312 17.4542C78.4328 17.4542 76.845 17.9636 76.2458 18.7725V28Z" fill="#0D0D0D"/>
<path d="M88.9337 20.3537H96.0878L97.2552 15.0763H90.1011L91.6577 7.99988H85.6111L81.2109 27.9999H87.2575L88.9337 20.3537Z" fill="#0D0D0D"/>
<path d="M88.9337 20.3537H96.0878L97.2552 15.0763H90.1011L91.6577 7.99988H85.6111L81.2109 27.9999H87.2575L88.9337 20.3537Z" fill="url(#paint0_linear_19_14795)"/>
<path fill-rule="evenodd" clip-rule="evenodd" d="M105.958 7.99988L103.346 12.4092L106.053 13.1347L101.748 20.6528L110.329 14.2804L108.298 13.7362L112.172 8.95795C113.946 9.97846 115.14 11.7623 115.14 14.0568C115.14 17.5951 112.835 20.3237 110.231 21.2533L112.206 27.9999H105.561L104.184 21.703H101.759L100.382 27.9999H94.3359L98.7361 7.99988H105.958Z" fill="#0D0D0D"/>
<path fill-rule="evenodd" clip-rule="evenodd" d="M105.958 7.99988L103.346 12.4092L106.053 13.1347L101.748 20.6528L110.329 14.2804L108.298 13.7362L112.172 8.95795C113.946 9.97846 115.14 11.7623 115.14 14.0568C115.14 17.5951 112.835 20.3237 110.231 21.2533L112.206 27.9999H105.561L104.184 21.703H101.759L100.382 27.9999H94.3359L98.7361 7.99988H105.958Z" fill="url(#paint1_linear_19_14795)"/>
<rect x="118.5" y="0.5" width="30" height="15" rx="3.5" fill="white"/>
<rect x="118.5" y="0.5" width="30" height="15" rx="3.5" fill="url(#paint2_linear_19_14795)" fill-opacity="0.04"/>
<rect x="118.5" y="0.5" width="30" height="15" rx="3.5" stroke="url(#paint3_linear_19_14795)"/>
<path d="M126.47 7.93C126.843 7.99667 127.16 8.19333 127.42 8.52C127.68 8.84667 127.81 9.21667 127.81 9.63C127.81 9.98333 127.717 10.3033 127.53 10.59C127.35 10.87 127.087 11.0933 126.74 11.26C126.393 11.42 125.99 11.5 125.53 11.5H122.75V4.55H125.4C125.873 4.55 126.28 4.63 126.62 4.79C126.96 4.95 127.217 5.16667 127.39 5.44C127.563 5.70667 127.65 6.00667 127.65 6.34C127.65 6.74 127.543 7.07333 127.33 7.34C127.117 7.60667 126.83 7.80333 126.47 7.93ZM123.89 7.47H125.3C125.673 7.47 125.963 7.38667 126.17 7.22C126.383 7.04667 126.49 6.8 126.49 6.48C126.49 6.16667 126.383 5.92333 126.17 5.75C125.963 5.57 125.673 5.48 125.3 5.48H123.89V7.47ZM125.43 10.57C125.817 10.57 126.12 10.4767 126.34 10.29C126.56 10.1033 126.67 9.84333 126.67 9.51C126.67 9.17 126.553 8.9 126.32 8.7C126.087 8.5 125.777 8.4 125.39 8.4H123.89V10.57H125.43ZM134.099 8.61C134.099 8.81667 134.085 9.00333 134.059 9.17H129.849C129.882 9.61 130.045 9.96333 130.339 10.23C130.632 10.4967 130.992 10.63 131.419 10.63C132.032 10.63 132.465 10.3733 132.719 9.86H133.949C133.782 10.3667 133.479 10.7833 133.039 11.11C132.605 11.43 132.065 11.59 131.419 11.59C130.892 11.59 130.419 11.4733 129.999 11.24C129.585 11 129.259 10.6667 129.019 10.24C128.785 9.80667 128.669 9.30667 128.669 8.74C128.669 8.17333 128.782 7.67667 129.009 7.25C129.242 6.81667 129.565 6.48333 129.979 6.25C130.399 6.01667 130.879 5.9 131.419 5.9C131.939 5.9 132.402 6.01333 132.809 6.24C133.215 6.46667 133.532 6.78667 133.759 7.2C133.985 7.60667 134.099 8.07667 134.099 8.61ZM132.909 8.25C132.902 7.83 132.752 7.49333 132.459 7.24C132.165 6.98667 131.802 6.86 131.369 6.86C130.975 6.86 130.639 6.98667 130.359 7.24C130.079 7.48667 129.912 7.82333 129.859 8.25H132.909ZM136.551 6.92V9.97C136.551 10.1767 136.597 10.3267 136.691 10.42C136.791 10.5067 136.957 10.55 137.191 10.55H137.891V11.5H136.991C136.477 11.5 136.084 11.38 135.811 11.14C135.537 10.9 135.401 10.51 135.401 9.97V6.92H134.751V5.99H135.401V4.62H136.551V5.99H137.891V6.92H136.551ZM138.561 8.72C138.561 8.16667 138.675 7.67667 138.901 7.25C139.135 6.82333 139.448 6.49333 139.841 6.26C140.241 6.02 140.681 5.9 141.161 5.9C141.595 5.9 141.971 5.98667 142.291 6.16C142.618 6.32667 142.878 6.53667 143.071 6.79V5.99H144.221V11.5H143.071V10.68C142.878 10.94 142.615 11.1567 142.281 11.33C141.948 11.5033 141.568 11.59 141.141 11.59C140.668 11.59 140.235 11.47 139.841 11.23C139.448 10.9833 139.135 10.6433 138.901 10.21C138.675 9.77 138.561 9.27333 138.561 8.72ZM143.071 8.74C143.071 8.36 142.991 8.03 142.831 7.75C142.678 7.47 142.475 7.25667 142.221 7.11C141.968 6.96333 141.695 6.89 141.401 6.89C141.108 6.89 140.835 6.96333 140.581 7.11C140.328 7.25 140.121 7.46 139.961 7.74C139.808 8.01333 139.731 8.34 139.731 8.72C139.731 9.1 139.808 9.43333 139.961 9.72C140.121 10.0067 140.328 10.2267 140.581 10.38C140.841 10.5267 141.115 10.6 141.401 10.6C141.695 10.6 141.968 10.5267 142.221 10.38C142.475 10.2333 142.678 10.02 142.831 9.74C142.991 9.45333 143.071 9.12 143.071 8.74Z" fill="url(#paint4_linear_19_14795)"/>
<defs>
<linearGradient id="paint0_linear_19_14795" x1="89.2331" y1="7.99988" x2="89.2331" y2="27.9999" gradientUnits="userSpaceOnUse">
<stop stop-color="#ED6D31"/>
<stop offset="1" stop-color="#EB4432"/>
</linearGradient>
<linearGradient id="paint1_linear_19_14795" x1="104.738" y1="7.99988" x2="104.738" y2="27.9999" gradientUnits="userSpaceOnUse">
<stop stop-color="#ED6D31"/>
<stop offset="1" stop-color="#EB4432"/>
</linearGradient>
<linearGradient id="paint2_linear_19_14795" x1="133.5" y1="0" x2="133.5" y2="16" gradientUnits="userSpaceOnUse">
<stop stop-color="#ED6D31"/>
<stop offset="1" stop-color="#EB4432"/>
</linearGradient>
<linearGradient id="paint3_linear_19_14795" x1="133.5" y1="0" x2="133.5" y2="16" gradientUnits="userSpaceOnUse">
<stop stop-color="#ED6D31"/>
<stop offset="1" stop-color="#EB4432"/>
</linearGradient>
<linearGradient id="paint4_linear_19_14795" x1="133.5" y1="4.5" x2="133.5" y2="11.5" gradientUnits="userSpaceOnUse">
<stop stop-color="#ED6D31"/>
<stop offset="1" stop-color="#EB4432"/>
</linearGradient>
</defs>
</svg>
