<svg width="160" height="147" viewBox="0 0 160 147" fill="none" xmlns="http://www.w3.org/2000/svg">
<path opacity="0.32" fill-rule="evenodd" clip-rule="evenodd" d="M159.2 140C159.2 216.878 96.878 279.2 20 279.2C-56.878 279.2 -119.2 216.878 -119.2 140C-119.2 63.122 -56.878 0.800003 20 0.800003C96.878 0.800003 159.2 63.122 159.2 140ZM160 140C160 217.32 97.3199 280 20 280C-57.3199 280 -120 217.32 -120 140C-120 62.6801 -57.3199 0 20 0C97.3199 0 160 62.6801 160 140ZM127.2 140C127.2 199.205 79.2049 247.2 20 247.2C-39.2049 247.2 -87.2 199.205 -87.2 140C-87.2 80.7951 -39.2049 32.8 20 32.8C79.2049 32.8 127.2 80.7951 127.2 140ZM128 140C128 199.647 79.6468 248 20 248C-39.6467 248 -88 199.647 -88 140C-88 80.3532 -39.6467 32 20 32C79.6468 32 128 80.3532 128 140Z" fill="url(#paint0_linear_923_2181)"/>
<defs>
<linearGradient id="paint0_linear_923_2181" x1="160" y1="0" x2="51.5" y2="109.9" gradientUnits="userSpaceOnUse">
<stop stop-color="#EB4432"/>
<stop offset="1" stop-color="#EB4432" stop-opacity="0"/>
<stop offset="1" stop-color="white" stop-opacity="0"/>
</linearGradient>
</defs>
</svg>
