<svg width="120" height="106" viewBox="0 0 120 106" fill="none" xmlns="http://www.w3.org/2000/svg">
<path opacity="0.6" fill-rule="evenodd" clip-rule="evenodd" d="M60 -13.6571C92.9477 -13.6571 119.657 13.0523 119.657 46C119.657 78.9477 92.9477 105.657 60 105.657C27.0523 105.657 0.342857 78.9477 0.342857 46C0.342857 13.0523 27.0523 -13.6571 60 -13.6571ZM60 -14C93.1371 -14 120 12.8629 120 46C120 79.1371 93.1371 106 60 106C26.8629 106 0 79.1371 0 46C0 12.8629 26.8629 -14 60 -14ZM60.0001 13.7703C77.7995 13.7703 92.2287 28.1995 92.2287 45.9989C92.2287 63.7982 77.7995 78.2275 60.0001 78.2275C42.2008 78.2275 27.7716 63.7982 27.7716 45.9989C27.7716 28.1995 42.2008 13.7703 60.0001 13.7703ZM60.0001 13.4275C77.9888 13.4275 92.5716 28.0102 92.5716 45.9989C92.5716 63.9876 77.9888 78.5703 60.0001 78.5703C42.0114 78.5703 27.4287 63.9876 27.4287 45.9989C27.4287 28.0102 42.0114 13.4275 60.0001 13.4275ZM64.8003 45.9978C64.8003 43.3468 62.6512 41.1978 60.0003 41.1978C57.3493 41.1978 55.2003 43.3468 55.2003 45.9978C55.2003 48.6487 57.3493 50.7978 60.0003 50.7978C62.6512 50.7978 64.8003 48.6487 64.8003 45.9978ZM65.1431 45.9978C65.1431 43.1574 62.8406 40.8549 60.0003 40.8549C57.16 40.8549 54.8574 43.1574 54.8574 45.9978C54.8574 48.8381 57.16 51.1406 60.0003 51.1406C62.8406 51.1406 65.1431 48.8381 65.1431 45.9978Z" fill="url(#paint0_linear_923_2177)"/>
<defs>
<linearGradient id="paint0_linear_923_2177" x1="120" y1="106" x2="0" y2="-14" gradientUnits="userSpaceOnUse">
<stop stop-color="#EB4432"/>
<stop offset="1" stop-color="#EB4432" stop-opacity="0"/>
<stop offset="1" stop-color="white" stop-opacity="0"/>
</linearGradient>
</defs>
</svg>
