<svg width="38" height="38" viewBox="0 0 38 38" fill="none" xmlns="http://www.w3.org/2000/svg">
<rect width="38" height="38" rx="19" fill="#FF4343"/>
<path d="M26.2714 9.85645H11.9026C11.383 9.85645 10.8846 10.0629 10.5171 10.4303C10.1497 10.7978 9.94324 11.2962 9.94324 11.8158V26.1846C9.94324 26.7042 10.1497 27.2026 10.5171 27.5701C10.8846 27.9375 11.383 28.1439 11.9026 28.1439H17.5052V21.9266H14.9335V19.0002H17.5052V16.7698C17.5052 14.2328 19.0156 12.8314 21.3288 12.8314C22.4367 12.8314 23.5952 13.029 23.5952 13.029V15.519H22.3187C21.0611 15.519 20.6688 16.2995 20.6688 17.1V19.0002H23.4764L23.0274 21.9266H20.6688V28.1439H26.2714C26.791 28.1439 27.2894 27.9375 27.6568 27.5701C28.0243 27.2026 28.2307 26.7042 28.2307 26.1846V11.8158C28.2307 11.2962 28.0243 10.7978 27.6568 10.4303C27.2894 10.0629 26.791 9.85645 26.2714 9.85645Z" fill="#F6F9FC"/>
</svg>
