<svg width="64" height="64" viewBox="0 0 64 64" fill="none" xmlns="http://www.w3.org/2000/svg">
<g id="Frame 1000003368">
<g id="Group">
<path id="Vector" d="M32 64C49.6731 64 64 49.6731 64 32C64 14.3269 49.6731 0 32 0C14.3269 0 0 14.3269 0 32C0 49.6731 14.3269 64 32 64Z" fill="#44AD00"/>
<path id="Vector_2" opacity="0.08" d="M31.9999 0C31.0935 0 30.1966 0.0397707 29.3091 0.113547C45.7228 1.4804 58.6184 15.2333 58.6184 32C58.6184 48.7667 45.7228 62.5196 29.3091 63.8865C30.1966 63.9604 31.0935 64 31.9999 64C49.673 64 63.9999 49.6731 63.9999 32C63.9999 14.3269 49.673 0 31.9999 0Z" fill="black"/>
<g id="Group_2">
<path id="Vector_3" d="M26.9539 46.8947C26.9478 46.8947 26.942 46.8947 26.936 46.8947C26.0613 46.8947 25.2248 46.5897 24.6129 45.9625L12.7522 33.8339C11.4871 32.5372 11.5096 30.4712 12.8023 29.2023C14.095 27.9333 16.169 27.9626 17.4338 29.2592L26.9786 39.0451L44.6669 21.3328C45.9459 20.0498 48.0197 20.0504 49.2988 21.3333C50.5782 22.616 50.5782 24.6965 49.2993 25.9795L29.2698 45.9872C28.6553 46.6036 27.822 46.8947 26.9539 46.8947Z" fill="white"/>
</g>
</g>
</g>
</svg>
