<svg width="95" height="100" viewBox="0 0 95 100" fill="none" xmlns="http://www.w3.org/2000/svg">
<g filter="url(#filter0_d_3_1809)">
<circle cx="47.5" cy="32.5" r="32.5" fill="#FF4D4D"/>
</g>
<g clip-path="url(#clip0_3_1809)">
<path d="M62.9988 34.8394C62.9988 27.5817 57.0958 21.7755 49.838 21.7755C47.5155 21.7755 45.3866 22.3561 43.4512 23.4206L38.3224 18.2918C38.0321 18.0983 37.7417 18.0015 37.4514 18.0015C37.0644 18.0983 36.8708 18.2918 36.6773 18.5821L35.9031 20.9045L33.6774 21.6787C33.2903 21.8722 33.0968 22.0658 33 22.4529C33 22.7432 33.0968 23.0335 33.2903 23.3238L38.4191 28.4526C37.3547 30.388 36.774 32.6138 36.774 34.9362C36.774 42.194 42.677 48.0002 49.9348 48.0002C57.1925 48.0002 63.0956 42.0972 62.9988 34.8394ZM38.0321 20.711L42.29 24.9689L41.9996 25.6463L37.7417 21.3883L38.0321 20.711ZM35.7096 23.0335L36.387 22.7432L40.6449 27.0011L39.9674 27.2914L35.7096 23.0335ZM49.9348 46.0648C43.7416 46.0648 38.7095 41.0327 38.7095 34.9362C38.7095 32.904 39.1934 30.9686 40.2578 29.3235L42.1932 28.5493L49.1607 35.5168C49.3542 35.7103 49.6445 35.8071 49.8381 35.8071C50.0316 35.8071 50.3219 35.7103 50.5155 35.5168C50.9026 35.1298 50.9026 34.5491 50.5155 34.162L43.548 27.1946L44.3222 25.2592C45.9673 24.2915 47.9026 23.7108 49.9349 23.7108C56.1282 23.7108 61.1602 28.7429 61.1602 34.8394C61.0634 41.0327 56.0313 46.0648 49.9348 46.0648Z" fill="white"/>
<path d="M55.8378 28.8387C54.2895 27.2904 52.1606 26.4194 49.8381 26.4194C48.7736 26.4194 47.6124 26.613 46.6447 27.0968C46.1608 27.2903 45.8705 27.871 46.1608 28.3548C46.3543 28.8387 46.935 29.129 47.4188 28.8387C48.193 28.5484 49.064 28.3548 49.8381 28.3548C51.58 28.3548 53.2251 29.0322 54.4831 30.2902C55.7411 31.5482 56.4185 33.1933 56.4185 34.9352C56.4185 38.5157 53.5154 41.4188 49.9349 41.4188C48.193 41.4188 46.5479 40.7413 45.3867 39.4834C44.1287 38.2254 43.4513 36.5803 43.4513 34.8384C43.4513 33.9675 43.6448 33.1933 43.9352 32.4191C44.1287 31.9353 43.9352 31.3546 43.3545 31.1611C42.8707 30.9676 42.29 31.1611 42.0965 31.7418C41.7095 32.7094 41.5159 33.7739 41.5159 34.8384C41.5159 37.0641 42.3868 39.1931 44.0319 40.8382C45.5802 42.3865 47.7091 43.2575 50.0317 43.2575C54.6766 43.2575 58.4507 39.4835 58.4507 34.8384C58.2571 32.6128 57.3861 30.4838 55.8378 28.8387Z" fill="white"/>
<path d="M51.096 31.2579C50.6121 31.0644 50.0315 31.3547 49.838 31.8385C49.6444 32.3224 49.9348 32.903 50.4186 33.0965C51.1928 33.3868 51.6766 34.0642 51.6766 34.8384C51.6766 35.8061 50.9025 36.677 49.838 36.677C49.0639 36.677 48.3864 36.1931 48.0962 35.419C47.9026 34.9351 47.4188 34.6448 46.8382 34.8383C46.3543 35.0319 46.064 35.5158 46.2575 36.0963C46.8382 37.6447 48.2896 38.6124 49.838 38.6124C51.8702 38.6124 53.612 36.9673 53.612 34.8385C53.612 33.1933 52.5475 31.8385 51.096 31.2579Z" fill="white"/>
</g>
<defs>
<filter id="filter0_d_3_1809" x="0" y="0" width="95" height="100" filterUnits="userSpaceOnUse" color-interpolation-filters="sRGB">
<feFlood flood-opacity="0" result="BackgroundImageFix"/>
<feColorMatrix in="SourceAlpha" type="matrix" values="0 0 0 0 0 0 0 0 0 0 0 0 0 0 0 0 0 0 127 0" result="hardAlpha"/>
<feMorphology radius="20" operator="erode" in="SourceAlpha" result="effect1_dropShadow_3_1809"/>
<feOffset dy="20"/>
<feGaussianBlur stdDeviation="17.5"/>
<feColorMatrix type="matrix" values="0 0 0 0 0 0 0 0 0 0.109804 0 0 0 0 0.686275 0 0 0 0.4 0"/>
<feBlend mode="normal" in2="BackgroundImageFix" result="effect1_dropShadow_3_1809"/>
<feBlend mode="normal" in="SourceGraphic" in2="effect1_dropShadow_3_1809" result="shape"/>
</filter>
<clipPath id="clip0_3_1809">
<rect width="30" height="30" fill="white" transform="translate(33 18)"/>
</clipPath>
</defs>
</svg>
