<svg width="412" height="93" viewBox="0 0 412 93" fill="none" xmlns="http://www.w3.org/2000/svg">
<path d="M33.0179 74.5066C18.5458 74.5066 8.46888 69.897 1.28641 63.1433L11.0417 48.7784C16.1874 53.924 24.1202 58.2121 33.9827 58.2121C40.2004 58.2121 44.0596 56.068 44.0596 52.5304C44.0596 43.0967 3.64484 50.9224 3.64484 23.3717C3.64484 11.3652 13.7217 0.645094 32.0531 0.645094C43.5236 0.645094 53.4933 4.07553 61.1046 10.6148L51.0277 24.4437C45.0244 19.4053 37.1988 16.9397 30.1235 16.9397C24.7634 16.9397 22.405 18.7621 22.405 21.8709C22.405 30.6614 62.8198 24.0149 62.8198 50.6008C62.8198 64.9657 52.2069 74.5066 33.0179 74.5066ZM122.471 73.2202H105.962V67.0026C102.746 70.6474 96.8503 74.5066 88.0598 74.5066C76.3749 74.5066 71.0148 67.753 71.0148 58.3193V21.4421H87.5238V51.4584C87.5238 57.7833 90.7398 59.9273 96.0999 59.9273C100.817 59.9273 104.033 57.3545 105.962 54.8888V21.4421H122.471V73.2202ZM166.295 74.5066C160.506 74.5066 155.253 72.2554 150.965 67.1098V92.9452H134.456V21.4421H150.965V27.4454C155.039 22.5141 160.399 20.1557 166.295 20.1557C179.266 20.1557 189.021 29.8038 189.021 47.2776C189.021 64.8585 179.266 74.5066 166.295 74.5066ZM160.828 59.9273C167.26 59.9273 172.191 55.1032 172.191 47.2776C172.191 39.5591 167.26 34.735 160.828 34.735C157.29 34.735 153.002 36.6647 150.965 39.4519V55.2104C153.002 57.8905 157.29 59.9273 160.828 59.9273ZM222.454 74.5066C206.481 74.5066 194.26 64.1081 194.26 47.2776C194.26 32.2694 205.516 20.1557 221.704 20.1557C237.033 20.1557 248.182 31.4118 248.182 48.9928V52.7448H211.305C212.484 57.3545 216.772 61.2137 224.276 61.2137C227.921 61.2137 233.924 59.6057 236.926 56.8185L244.109 67.6458C238.963 72.2554 230.387 74.5066 222.454 74.5066ZM232.424 41.4887C231.995 37.8439 229.315 33.4486 221.704 33.4486C214.521 33.4486 211.734 37.7367 211.091 41.4887H232.424ZM272.823 73.2202H256.314V21.4421H272.823V27.767C276.253 23.5861 282.899 20.0485 289.01 20.0485V35.9142C288.045 35.5926 286.651 35.4854 284.936 35.4854C280.648 35.4854 274.967 37.3079 272.823 40.2023V73.2202Z" fill="white"/>
<path d="M318.235 45.4246H343.834L348.011 26.5412H322.413L327.982 1.22021H306.347L290.602 72.7841H312.237L318.235 45.4246Z" fill="white"/>
<path d="M318.235 45.4246H343.834L348.011 26.5412H322.413L327.982 1.22021H306.347L290.602 72.7841H312.237L318.235 45.4246Z" fill="url(#paint0_linear_80_8385)"/>
<path fill-rule="evenodd" clip-rule="evenodd" d="M379.149 1.22021L369.8 16.9974L379.489 19.5934L364.082 46.4946L394.788 23.6929L387.521 21.7457L401.383 4.64867C407.73 8.30032 412 14.6832 412 22.8932C412 35.5537 403.753 45.3173 394.435 48.6434L401.504 72.7841H377.726L372.799 50.2528H364.123L359.196 72.7841H337.561L353.305 1.22021H379.149Z" fill="white"/>
<path fill-rule="evenodd" clip-rule="evenodd" d="M379.149 1.22021L369.8 16.9974L379.489 19.5934L364.082 46.4946L394.788 23.6929L387.521 21.7457L401.383 4.64867C407.73 8.30032 412 14.6832 412 22.8932C412 35.5537 403.753 45.3173 394.435 48.6434L401.504 72.7841H377.726L372.799 50.2528H364.123L359.196 72.7841H337.561L353.305 1.22021H379.149Z" fill="url(#paint1_linear_80_8385)"/>
<defs>
<linearGradient id="paint0_linear_80_8385" x1="319.307" y1="1.22021" x2="319.307" y2="72.7841" gradientUnits="userSpaceOnUse">
<stop stop-color="#ED6D31"/>
<stop offset="1" stop-color="#EB4432"/>
</linearGradient>
<linearGradient id="paint1_linear_80_8385" x1="374.78" y1="1.22021" x2="374.78" y2="72.7841" gradientUnits="userSpaceOnUse">
<stop stop-color="#ED6D31"/>
<stop offset="1" stop-color="#EB4432"/>
</linearGradient>
</defs>
</svg>
