<svg width="645" height="145" viewBox="0 0 645 145" fill="none" xmlns="http://www.w3.org/2000/svg">
<path d="M51.6742 115.795C29.0248 115.795 13.2541 108.581 2.01328 98.0113L17.2807 75.5297C25.3338 83.5828 37.749 90.2937 53.1841 90.2937C62.915 90.2937 68.9548 86.9383 68.9548 81.4017C68.9548 66.6377 5.70429 78.8851 5.70429 35.7674C5.70429 16.9768 21.475 0.19944 50.1642 0.19944C68.116 0.19944 83.7189 5.56819 95.6308 15.8024L79.8601 37.4451C70.4648 29.5598 58.2173 25.701 47.1443 25.701C38.7556 25.701 35.0646 28.5531 35.0646 33.4186C35.0646 47.176 98.3152 36.774 98.3152 78.3818C98.3152 100.863 81.7056 115.795 51.6742 115.795ZM191.672 113.782H165.835V104.051C160.802 109.755 151.574 115.795 137.817 115.795C119.529 115.795 111.141 105.226 111.141 90.4615V32.7475H136.978V79.724C136.978 89.6226 142.011 92.9781 150.4 92.9781C157.782 92.9781 162.815 88.9515 165.835 85.0927V32.7475H191.672V113.782ZM260.257 115.795C251.197 115.795 242.976 112.272 236.265 104.219V144.652H210.428V32.7475H236.265V42.1428C242.641 34.4252 251.03 30.7342 260.257 30.7342C280.558 30.7342 295.825 45.8338 295.825 73.1808C295.825 100.696 280.558 115.795 260.257 115.795ZM251.701 92.9781C261.767 92.9781 269.485 85.4283 269.485 73.1808C269.485 61.1012 261.767 53.5514 251.701 53.5514C246.164 53.5514 239.453 56.5713 236.265 60.9334V85.5961C239.453 89.7904 246.164 92.9781 251.701 92.9781ZM348.148 115.795C323.15 115.795 304.024 99.5213 304.024 73.1808C304.024 49.6926 321.64 30.7342 346.974 30.7342C370.965 30.7342 388.414 48.3504 388.414 75.8652V81.7373H330.7C332.545 88.9515 339.256 94.9914 351 94.9914C356.704 94.9914 366.1 92.4748 370.797 88.1127L382.038 105.058C373.985 112.272 360.563 115.795 348.148 115.795ZM363.751 64.1211C363.08 58.4168 358.885 51.5381 346.974 51.5381C335.733 51.5381 331.371 58.249 330.364 64.1211H363.751ZM426.977 113.782H401.139V32.7475H426.977V42.6461C432.345 36.1029 442.747 30.5664 452.31 30.5664V55.3969C450.8 54.8935 448.619 54.7258 445.935 54.7258C439.224 54.7258 430.332 57.5779 426.977 62.1078V113.782Z" fill="#0D0D0D"/>
<path d="M498.049 70.9635H538.112L544.65 41.4103H504.587L513.303 1.7821H479.443L454.802 113.782H488.662L498.049 70.9635Z" fill="url(#paint0_linear_15_1080)"/>
<path fill-rule="evenodd" clip-rule="evenodd" d="M593.38 1.7821L578.75 26.4739L593.913 30.5368L569.8 72.6381L617.857 36.9527L606.484 33.9052L628.178 7.14777C638.112 12.8627 644.794 22.8522 644.794 35.7011C644.794 55.5152 631.887 70.7956 617.303 76.001L628.366 113.782H591.153L583.443 78.5197H569.865L562.154 113.782H528.293L552.935 1.7821H593.38Z" fill="url(#paint1_linear_15_1080)"/>
<defs>
<linearGradient id="paint0_linear_15_1080" x1="499.726" y1="1.7821" x2="499.726" y2="113.782" gradientUnits="userSpaceOnUse">
<stop stop-color="#ED6D31"/>
<stop offset="1" stop-color="#EB4432"/>
</linearGradient>
<linearGradient id="paint1_linear_15_1080" x1="586.544" y1="1.7821" x2="586.544" y2="113.782" gradientUnits="userSpaceOnUse">
<stop stop-color="#ED6D31"/>
<stop offset="1" stop-color="#EB4432"/>
</linearGradient>
</defs>
</svg>
