<svg width="268" height="225" viewBox="0 0 268 225" fill="none" xmlns="http://www.w3.org/2000/svg">
<path opacity="0.32" fill-rule="evenodd" clip-rule="evenodd" d="M200 -173.857C90.1742 -173.857 1.14285 -84.8258 1.14285 25C1.14285 134.826 90.1742 223.857 200 223.857C309.826 223.857 398.857 134.826 398.857 25C398.857 -84.8258 309.826 -173.857 200 -173.857ZM200 -175C89.5431 -175 0 -85.4569 0 25C0 135.457 89.5431 225 200 225C310.457 225 400 135.457 400 25C400 -85.4569 310.457 -175 200 -175ZM200 -128.139C115.422 -128.139 46.8576 -59.5751 46.8576 25.0034C46.8576 109.582 115.422 178.146 200 178.146C284.579 178.146 353.143 109.582 353.143 25.0034C353.143 -59.5751 284.579 -128.139 200 -128.139ZM200 -129.282C114.791 -129.282 45.7147 -60.2063 45.7147 25.0034C45.7147 110.213 114.791 179.289 200 179.289C285.21 179.289 354.286 110.213 354.286 25.0034C354.286 -60.2063 285.21 -129.282 200 -129.282ZM92.5713 24.9989C92.5713 -34.3323 140.669 -82.4297 200 -82.4297C259.331 -82.4297 307.428 -34.3323 307.428 24.9989C307.428 84.33 259.331 132.427 200 132.427C140.669 132.427 92.5713 84.33 92.5713 24.9989ZM91.4284 24.9989C91.4284 -34.9635 140.038 -83.5726 200 -83.5726C259.962 -83.5726 308.571 -34.9635 308.571 24.9989C308.571 84.9612 259.962 133.57 200 133.57C140.038 133.57 91.4284 84.9612 91.4284 24.9989ZM200 -36.712C165.916 -36.712 138.286 -9.08163 138.286 25.0022C138.286 59.0861 165.916 86.7165 200 86.7165C234.084 86.7165 261.715 59.0861 261.715 25.0022C261.715 -9.08163 234.084 -36.712 200 -36.712ZM200 -37.8549C165.285 -37.8549 137.143 -9.7128 137.143 25.0022C137.143 59.7173 165.285 87.8594 200 87.8594C234.715 87.8594 262.857 59.7173 262.857 25.0022C262.857 -9.7128 234.715 -37.8549 200 -37.8549ZM184 24.9978C184 16.1612 191.163 8.99777 200 8.99777C208.836 8.99777 216 16.1612 216 24.9978C216 33.8343 208.836 40.9978 200 40.9978C191.163 40.9978 184 33.8343 184 24.9978ZM182.857 24.9978C182.857 15.53 190.532 7.85492 200 7.85492C209.467 7.85492 217.143 15.53 217.143 24.9978C217.143 34.4655 209.467 42.1406 200 42.1406C190.532 42.1406 182.857 34.4655 182.857 24.9978Z" fill="url(#paint0_linear_923_2171)"/>
<defs>
<linearGradient id="paint0_linear_923_2171" x1="0" y1="225" x2="200" y2="25" gradientUnits="userSpaceOnUse">
<stop stop-color="#EB4432"/>
<stop offset="1" stop-color="#EB4432" stop-opacity="0"/>
<stop offset="1" stop-color="white" stop-opacity="0"/>
</linearGradient>
</defs>
</svg>
